<?xml version="1.0" encoding="utf-8"?><!-- Uploaded to: SVG Repo, www.svgrepo.com, Generator: SVG Repo Mixer Tools -->
<svg width="800px" height="800px" viewBox="0 0 400 400" fill="none" xmlns="http://www.w3.org/2000/svg">
<path d="M283.544 125.915C216.948 70.7464 215.677 158.544 202.208 163.884C174.859 174.726 145.599 158.544 123.801 139.846C121.658 138.007 102.337 112.55 101.197 113.691C81.7491 133.158 101.182 195.279 118.15 209.834C135.117 224.389 138.637 220.149 138.637 221.851C138.637 224.118 133.385 223.077 132.277 223.267C111.062 226.895 92.6878 198.051 87.8973 194.661C83.1067 191.27 88.651 214.93 90.7227 220.11C99.8526 242.955 122.728 260.028 147.113 260.028" stroke="#000000" stroke-opacity="0.9" stroke-width="16" stroke-linecap="round" stroke-linejoin="round"/>
<path d="M307.45 115.33C300.183 120.656 292.144 123.929 283.543 125.396" stroke="#000000" stroke-opacity="0.9" stroke-width="16" stroke-linecap="round" stroke-linejoin="round"/>
<path d="M315.001 136.72C307.156 138.632 298.725 138.632 290.952 143.868C289.38 144.927 291.588 151.061 293.075 164.591C294.562 178.121 289.476 194.795 285.294 207.469C262.752 275.806 146.114 316.17 98.583 274.736" stroke="#000000" stroke-opacity="0.9" stroke-width="16" stroke-linecap="round" stroke-linejoin="round"/>
<path d="M250.831 132.945C251.906 134.713 252.745 135.971 253.348 136.72" stroke="#000000" stroke-opacity="0.9" stroke-width="16" stroke-linecap="round" stroke-linejoin="round"/>
</svg>